# xmcd CD database file
#
# Track frame offsets:
#	187
#	24675
#	43650
#	60225
#	83625
#	108600
#	132150
#	157050
#
# Disc length: 2315 seconds
#
# Revision: 0
# Processed by: cddbd v1.5.1PL0 Copyright (c) Steve Scherf et al.
# Submitted via: CDex 1.50
#
DISCID=62090908
DTITLE=Ray Bryant - Sound Ray
DYEAR=1969
DGENRE=Jazz
TTITLE0=Song for my father
TTITLE1=Con Alma
TTITLE2=Scarborough Fair
TTITLE3=Stick with it
TTITLE4=Broadway
TTITLE5=Li'l Darlin'
TTITLE6=The look of love
TTITLE7=Sound Ray
EXTD=YEAR: 1969
EXTT0=
EXTT1=
EXTT2=
EXTT3=
EXTT4=
EXTT5=
EXTT6=
EXTT7=
PLAYORDER=
